PathFileType	4	(X/Y/Z)	C:\Users\dbl\Desktop\20210112(1)\20210112\bx_y_10_1801.trc
DataRate	CameraRate	NumFrames	NumMarkers	Units	OrigDataRate	OrigDataStartFrame	OrigNumFrames
50.00	50.00	       6	43	mm	50.00	118	       468
Frame#	Time	Top.Head			R.Acromium			L.Acromium			Sternum			R.ASIS			L.ASIS			V.Sacral			R.Thigh.Upper			R.Thigh.Front			R.Thigh.Rear			R.Knee.Lat			R.Knee.Med			R.Shank.Upper			R.Shank.Front			R.Shank.Rear			R.Ankle.Lat			R.Midfoot.Lat			R.Toe.Lat			R.Toe.Tip			R.Toe.Med			R.Ankle.Med			R.Midfoot.Sup			R.Heel			L.Thigh.Upper			L.Thigh.Front			L.Thigh.Rear			L.Knee.Lat			L.Knee.Med			L.Shank.Upper			L.Shank.Front			L.Shank.Rear			L.Ankle.Lat			L.Midfoot.Lat			L.Toe.Lat			L.Toe.Tip			L.Toe.Med			L.Ankle.Med			L.Midfoot.Sup			L.Heel			origin1 front left			origin2 front right			origin 3 back right			origin 4 back leftt			
		X1	Y1	Z1	X2	Y2	Z2	X3	Y3	Z3	X4	Y4	Z4	X5	Y5	Z5	X6	Y6	Z6	X7	Y7	Z7	X8	Y8	Z8	X9	Y9	Z9	X10	Y10	Z10	X11	Y11	Z11	X12	Y12	Z12	X13	Y13	Z13	X14	Y14	Z14	X15	Y15	Z15	X16	Y16	Z16	X17	Y17	Z17	X18	Y18	Z18	X19	Y19	Z19	X20	Y20	Z20	X21	Y21	Z21	X22	Y22	Z22	X23	Y23	Z23	X24	Y24	Z24	X25	Y25	Z25	X26	Y26	Z26	X27	Y27	Z27	X28	Y28	Z28	X29	Y29	Z29	X30	Y30	Z30	X31	Y31	Z31	X32	Y32	Z32	X33	Y33	Z33	X34	Y34	Z34	X35	Y35	Z35	X36	Y36	Z36	X37	Y37	Z37	X38	Y38	Z38	X39	Y39	Z39	X40	Y40	Z40	X41	Y41	Z41	X42	Y42	Z42	X43	Y43	Z43	

118	2.340	-275.89804	133.66949	1113.44287	-438.20505	-22.08679	872.32635	-439.39914	294.96384	875.68243	-539.70422	91.36864	1017.40100	-866.33447	11.37197	759.10828	-848.76941	219.31137	775.11865	-1032.15637	126.04594	749.42725	-814.91119	-69.67690	663.79675	-734.71558	-12.69902	699.85638	-699.85321	-91.20522	591.93445	-603.33386	-76.05904	553.46844	-549.56946	34.96620	545.79004	-586.42194	-74.13309	515.56006	-542.46448	-23.90501	468.67401	-651.38428	-68.81132	456.38141	-756.13367	-6.56451	210.03743	-663.19525	-65.47611	165.17665	-622.79510	-75.33376	162.09448	-560.09570	-38.18970	162.14433	-603.27612	20.05983	165.81158	-704.10565	76.51211	212.05089	-675.30640	53.83332	155.39696	-791.32147	58.38007	180.86353	-795.57758	313.24567	667.64935	-725.59796	245.41698	697.48151	-706.01123	323.85352	588.21082	-603.74939	302.92557	544.35443	-531.49500	193.81403	538.46283	-571.22076	301.49475	514.92468	-519.25281	252.56476	476.46933	-628.78870	297.49344	461.65747	-760.60168	225.89211	208.30153	-665.32306	297.00433	161.05571	-628.75903	304.43777	161.73746	-559.19208	259.60773	162.92419	-592.96826	219.50336	171.20032	-699.66522	153.02821	211.12091	-675.18005	174.10643	153.97722	-791.81561	169.08983	193.52481	-528.31335	304.47708	146.59631	-517.73694	-72.24475	142.94614	-876.04211	-78.87970	141.22905	-882.54321	296.15778	144.63678	
119	2.360	-279.40411	132.77118	1116.06067	-441.14270	-23.68535	873.73822	-441.85349	294.39679	876.55298	-540.74939	91.51895	1019.38654	-865.99072	11.07363	760.89954	-847.98517	219.13048	776.61108	-1033.36572	125.61514	749.83557	-816.22577	-70.20072	664.02246	-736.02228	-13.20393	700.20776	-700.34760	-91.58650	592.52856	-604.50592	-76.43401	553.70477	-552.51880	34.74672	545.77814	-587.38824	-74.57143	515.89246	-543.28259	-24.09868	469.22513	-651.94995	-69.29391	456.41019	-756.02985	-6.86600	209.92938	-663.09442	-65.32703	165.21870	-622.55585	-75.07066	162.15115	-560.23315	-38.16026	162.19307	-603.31207	20.05423	165.86412	-704.33173	76.50362	212.26437	-675.41022	53.85470	155.53838	-791.44507	58.06173	180.91042	-796.78973	312.96683	668.46667	-726.82507	245.08960	698.09961	-707.23676	323.69394	589.00366	-605.10419	303.01981	545.21399	-532.78101	193.71988	539.04871	-572.44507	301.34979	515.67670	-520.17450	252.35638	477.41498	-629.72937	297.54910	462.06934	-760.73169	226.03348	208.23059	-665.36682	296.95749	160.98853	-628.79279	304.42993	161.74898	-559.30542	259.56024	162.94609	-593.09625	219.42891	171.15240	-700.19763	152.67072	211.70732	-675.33459	174.14441	154.01852	-792.13214	169.11983	193.48264	-528.22827	304.55563	146.63663	-517.74609	-72.20525	142.88005	-876.03717	-78.87862	141.23001	-882.53467	296.14371	144.62724	
120	2.380	-282.18994	131.78543	1118.34631	-444.06775	-25.37317	875.57263	-444.45370	294.03848	878.00720	-541.82452	91.66315	1021.55627	-865.57507	10.76469	762.86438	-847.13977	218.94586	778.26843	-1034.49585	125.14445	750.64319	-817.46930	-70.65952	664.44159	-737.27985	-13.63121	700.76428	-700.87598	-91.94150	593.19495	-605.73529	-76.58363	553.98114	-555.52698	34.64544	545.76862	-588.46863	-74.83051	516.29315	-544.19684	-24.12874	469.79260	-652.59717	-69.55167	456.50922	-755.98865	-7.13803	209.76379	-663.00519	-65.19878	165.26537	-622.32959	-74.82374	162.20992	-560.33423	-38.19405	162.27805	-603.35895	20.06067	165.92262	-704.53815	76.50215	212.39597	-675.50299	53.84847	155.59161	-791.57269	57.76617	180.84633	-797.98657	312.59781	669.51709	-728.03302	244.63068	698.82581	-708.52972	323.46173	589.94489	-606.58203	303.24905	546.31293	-534.20258	193.50381	539.57416	-573.74634	301.07687	516.44452	-521.17017	252.00636	478.40961	-630.73096	297.52042	462.46097	-760.89319	226.18153	208.07544	-665.41034	296.93988	160.93163	-628.82526	304.43506	161.76590	-559.46014	259.48666	162.97592	-593.23218	219.35553	171.10190	-700.70447	152.29431	212.18344	-675.48669	174.19484	154.06947	-792.48236	169.22685	193.40146	-528.16748	304.61044	146.67162	-517.76862	-72.13670	142.77669	-876.02924	-78.87455	141.23143	-882.52875	296.13138	144.62108	
121	2.400	-284.30093	130.76480	1120.58777	-446.99237	-27.05576	877.99127	-447.19586	293.83310	880.33136	-542.92896	91.80080	1023.91003	-865.08704	10.44556	765.00299	-846.23389	218.75772	780.09113	-1035.54187	124.61269	751.81079	-818.59595	-71.03312	665.00623	-738.42639	-13.98098	701.51227	-701.43695	-92.26747	593.93372	-606.94141	-76.47527	554.29114	-558.36005	34.72740	545.78229	-589.57971	-74.84628	516.72046	-545.15082	-23.95041	470.32867	-653.26019	-69.53972	456.64777	-756.01782	-7.34948	209.54373	-662.93408	-65.10136	165.32251	-622.14764	-74.60899	162.25620	-560.38660	-38.28178	162.38226	-603.42664	20.10152	165.95720	-704.72095	76.52271	212.40828	-675.57349	53.82521	155.52867	-791.69952	57.51366	180.64656	-799.13171	312.13522	670.76825	-729.17285	244.06714	699.66577	-709.83783	323.11853	591.02039	-608.15210	303.58469	547.63452	-535.68524	193.11269	540.04456	-575.07593	300.64099	517.17383	-522.22015	251.47899	479.39969	-631.75439	297.35498	462.81732	-761.08209	226.31276	207.84404	-665.43671	296.94373	160.90199	-628.85107	304.43719	161.79695	-559.63770	259.39407	163.00793	-593.36176	219.28741	171.04224	-701.13660	151.93877	212.46761	-675.60840	174.23856	154.10327	-792.79913	169.41084	193.25743	-528.13483	304.63062	146.68491	-517.79657	-72.05861	142.65768	-876.00519	-78.85409	141.22890	-882.53046	296.12912	144.62163	
122	2.420	-285.92737	129.75525	1123.17566	-449.93115	-28.68027	881.13953	-450.05212	293.66699	883.70862	-544.06232	91.93141	1026.44775	-864.52637	10.11664	767.31525	-845.26831	218.56624	782.07922	-1036.48718	123.99745	753.30121	-819.55566	-71.32691	665.67828	-739.38269	-14.26684	702.43463	-702.02905	-92.56168	594.74524	-608.03088	-76.14526	554.66327	-560.78754	35.05435	545.84747	-590.60907	-74.56899	517.13568	-546.08276	-23.54412	470.80133	-653.86987	-69.25262	456.81036	-756.10504	-7.47479	209.29222	-662.87317	-65.03262	165.39688	-622.02551	-74.43404	162.28159	-560.39349	-38.39855	162.48349	-603.50989	20.18576	165.94118	-704.89099	76.59416	212.29283	-675.61401	53.80032	155.35463	-791.81750	57.31683	180.32753	-800.18854	311.58826	672.19238	-730.19995	243.43687	700.63568	-711.10565	322.63446	592.21814	-609.77960	303.95590	549.12292	-537.14612	192.53773	540.48315	-576.38751	300.04126	517.83594	-523.28986	250.78529	480.33258	-632.76440	297.03030	463.13770	-761.28308	226.39612	207.56233	-665.43787	296.95154	160.90659	-628.86707	304.41666	161.84727	-559.80585	259.30133	163.03912	-593.47375	219.22597	170.97214	-701.47278	151.62729	212.53572	-675.68085	174.24913	154.09259	-792.99353	169.65901	193.02637	-528.12823	304.61380	146.67226	-517.82013	-71.99252	142.55789	-875.95367	-78.80246	141.22006	-882.54272	296.13818	144.62682	
123	2.440	-287.35214	128.78052	1126.52893	-452.88577	-30.23600	885.13593	-452.99078	293.42813	888.20428	-545.22394	92.05455	1029.16907	-863.89233	9.77831	769.80115	-844.24371	218.37164	784.23285	-1037.30518	123.28973	755.09052	-820.30414	-71.57212	666.44196	-740.06958	-14.51314	703.51538	-702.65082	-92.82140	595.62964	-608.92548	-75.70293	555.15326	-562.65912	35.65345	545.98407	-591.46033	-73.98660	517.51160	-546.94409	-22.93290	471.19812	-654.38092	-68.73190	456.99771	-756.22540	-7.50370	209.04150	-662.80682	-64.98193	165.49112	-621.96094	-74.29620	162.28362	-560.37305	-38.51315	162.56273	-603.58722	20.30188	165.86365	-705.06848	76.74293	212.07869	-675.62756	53.78502	155.10378	-791.92096	57.18295	179.94283	-801.12329	310.97247	673.77856	-731.07904	242.76459	701.75446	-712.28278	321.99994	593.52612	-611.42993	304.26031	550.69702	-538.51318	191.81541	540.91528	-577.64490	299.30731	518.43298	-524.33820	249.97708	481.17203	-633.73834	296.56671	463.44934	-761.47437	226.40527	207.26733	-665.41669	296.94272	160.94266	-628.87219	304.35767	161.91451	-559.93317	259.23074	163.07164	-593.56207	219.16818	170.89667	-701.71826	151.36839	212.42029	-675.70593	174.20499	154.02361	-793.00085	169.94139	192.70042	-528.13977	304.56927	146.64230	-517.83075	-71.95375	142.50891	-875.87494	-78.71339	141.20708	-882.56311	296.15326	144.63264	
